<svg width="64" height="58" viewBox="0 0 64 58" fill="none"><path fill-rule="evenodd" clip-rule="evenodd" d="M13.7371 25.2502C13.7371 25.2502 13.8107 27.7551 14.9792 29.4836C16.1478 31.2121 19.8701 34.797 19.8701 34.797C19.8701 34.797 25.6734 36.484 28.3404 34.9777C31.0076 33.4715 34.4507 31.9682 36.9204 27.6364C39.3899 23.3044 41.676 16.9029 42.8192 13.5139C43.9623 10.1249 46.732 8.7813 51.4434 8.32341C56.1549 7.86552 61.398 10.0832 61.398 10.0832C61.398 10.0832 58.6927 5.14853 55.1377 3.68284C51.5826 2.21714 46.1489 -0.123245 39.5307 3.68284C32.9126 7.48892 29.891 12.3802 26.3258 19.7404C23.7559 25.0458 21.8631 25.1873 17.2909 25.5637C12.7187 25.9403 13.7371 25.2502 13.7371 25.2502Z" fill="white"></path><path fill-rule="evenodd" clip-rule="evenodd" d="M19.9579 35.3544C19.9579 35.3544 24.0046 39.2281 27.6966 40.8685C31.3885 42.509 44.3431 44.3918 51.2014 39.4965C58.0598 34.6012 62.1244 27.8921 62.9498 21.2679C63.7751 14.6436 62.8074 11.3607 59.8621 9.8015C56.9167 8.24213 45.4861 6.73598 42.438 13.8905C39.3899 21.0452 37.8658 30.0826 32.1505 32.7184C26.4352 35.3544 24.3256 35.7671 21.1893 34.996C18.0528 34.2247 19.9579 35.3544 19.9579 35.3544Z" fill="#F2E205"></path><path fill-rule="evenodd" clip-rule="evenodd" d="M18.4338 7.48898C18.4338 7.48898 17.2908 5.9827 13.8616 7.11238C10.4324 8.24218 8.14631 9.74833 7.38432 12.3843C6.62232 15.0201 5.41889 17.5553 6.7826 19.3001C8.14631 21.0451 10.4324 23.681 12.3376 24.4341V17.2795L12.9828 12.4328L14.3245 10.4881L17.4768 8.56177L18.4338 7.48898Z" fill="#0528F2"></path><path fill-rule="evenodd" clip-rule="evenodd" d="M10.8134 7.48897C10.8134 7.48897 9.67036 5.22961 5.09813 5.22961C0.5259 5.22961 2.05002 6.35929 2.05002 6.35929C2.05002 6.35929 7.00319 10.1249 6.62225 12.0077L10.8134 7.48897Z" fill="#0528F2"></path><path fill-rule="evenodd" clip-rule="evenodd" d="M45.6275 5.68213C45.6275 6.20158 45.2014 6.62268 44.6758 6.62268C44.1502 6.62268 43.7241 6.20158 43.7241 5.68213C43.7241 5.16268 44.1502 4.74158 44.6758 4.74158C45.2014 4.74158 45.6275 5.16268 45.6275 5.68213Z" fill="#292835"></path><path fill-rule="evenodd" clip-rule="evenodd" d="M63.2372 18.2084C62.8164 18.2084 62.4751 17.8712 62.4751 17.4553C62.4751 9.13367 55.625 2.36358 47.2046 2.36358C43.9395 2.36358 40.8255 3.36721 38.1985 5.26602C37.8592 5.51152 37.3819 5.43833 37.1336 5.10281C36.8851 4.76704 36.9591 4.29576 37.2989 4.05025C40.1885 1.96144 43.614 0.8573 47.2046 0.8573C56.4652 0.8573 63.9992 8.3031 63.9992 17.4553C63.9992 17.8712 63.658 18.2084 63.2372 18.2084Z" fill="#292835"></path><path fill-rule="evenodd" clip-rule="evenodd" d="M37.5762 43.5698C23.0059 43.5698 11.1523 31.8549 11.1523 17.4552C11.1523 16.5664 11.1983 15.6683 11.2887 14.7862C11.3312 14.3724 11.7056 14.0713 12.1236 14.1128C12.5424 14.1548 12.8474 14.5242 12.805 14.9381C12.7198 15.7701 12.6765 16.6169 12.6765 17.4552C12.6765 31.0241 23.8463 42.0635 37.5762 42.0635C51.306 42.0635 62.4761 31.0241 62.4761 17.4552C62.4761 17.0393 62.8172 16.702 63.2381 16.702C63.6589 16.702 64.0001 17.0393 64.0001 17.4552C64.0001 31.8549 52.1465 43.5698 37.5762 43.5698Z" fill="#292835"></path><path fill-rule="evenodd" clip-rule="evenodd" d="M16.5752 26.2251C16.1279 26.2251 15.7736 26.217 15.7514 26.2165C10.0615 26.2166 5.41748 21.6271 5.41748 15.9859C5.41748 10.3448 10.0615 5.75526 15.7695 5.75526C19.5216 5.75526 21.6347 7.54522 21.7228 7.62133C21.9753 7.83965 22.0536 8.19552 21.9157 8.49779C21.7779 8.80043 21.4574 8.97843 21.1233 8.93494C20.8045 8.89423 20.4784 8.87363 20.1539 8.87363C15.6234 8.87363 12.696 11.8504 12.696 16.4573C12.696 16.8733 12.3548 17.2104 11.9339 17.2104C11.5131 17.2104 11.1719 16.8733 11.1719 16.4573C11.1719 11.7384 13.8908 8.36353 18.1213 7.55445C17.4546 7.38189 16.6674 7.26154 15.7695 7.26154C10.9018 7.26154 6.9416 11.1752 6.9416 15.9859C6.9416 20.7967 10.9018 24.7105 15.7695 24.7105C15.7954 24.711 16.583 24.7288 17.2695 24.7106C17.9573 24.6924 18.7128 24.6333 18.7205 24.6328C18.8806 24.6236 22.1571 24.3952 25.0823 20.2671C25.6419 19.4774 26.265 18.3342 26.9867 17.0102C30.28 10.9688 35.7919 0.857178 48.3655 0.857178C48.7864 0.857178 49.1275 1.19446 49.1275 1.61038C49.1275 2.0263 48.7864 2.36345 48.3655 2.36345C36.702 2.36345 31.6629 11.6077 28.3284 17.7247C27.5842 19.0901 26.9414 20.2692 26.3306 21.1313C22.9489 25.9037 18.9813 26.1287 18.814 26.1358C18.8086 26.1368 18.0379 26.1969 17.3106 26.2165C17.0628 26.2228 16.8066 26.2251 16.5752 26.2251Z" fill="#292835"></path><path fill-rule="evenodd" clip-rule="evenodd" d="M6.48103 14.25C6.06018 14.25 5.71903 13.9129 5.71903 13.4968C5.71903 10.2808 3.44584 7.54367 0.755123 7.52003C0.448892 7.51725 0.174129 7.33356 0.0574692 7.05367C-0.0591902 6.77378 0.0050236 6.45205 0.220434 6.23688C1.67318 4.78699 3.60983 3.9884 5.67439 3.9884C7.48837 3.9884 9.24862 4.62555 10.6311 5.78241C10.6411 5.79088 10.6512 5.79973 10.6609 5.8087C10.7459 5.88784 11.504 6.59831 11.9123 7.16821C12.1555 7.50777 12.0743 7.97779 11.7308 8.21811C11.3869 8.45844 10.9113 8.37753 10.6685 8.0386C10.4025 7.66718 9.84343 7.11802 9.63096 6.91929C8.52589 6.00048 7.12138 5.49468 5.67439 5.49468C4.55973 5.49468 3.4915 5.78519 2.55695 6.33018C5.2295 7.26884 7.24315 10.1796 7.24315 13.4968C7.24315 13.9129 6.90187 14.25 6.48103 14.25Z" fill="#292835"></path><path fill-rule="evenodd" clip-rule="evenodd" d="M24.8029 36.1137C22.6295 36.1137 20.3004 35.6363 17.8325 34.6821C17.4405 34.5305 17.2471 34.0936 17.4005 33.7064C17.5536 33.3193 17.9952 33.1277 18.3878 33.2796C22.6545 34.9295 26.4245 35.0395 29.5922 33.6079C35.9606 30.7294 39.0585 22.0741 41.1083 16.3469C41.5177 15.204 41.9038 14.1243 42.2689 13.2184C43.6059 9.90054 46.9222 7.9078 51.6072 7.6073C56.4577 7.29644 61.4701 8.94115 62.7859 11.2733C62.9909 11.6366 62.8588 12.0952 62.4912 12.2978C62.1231 12.5006 61.6596 12.3701 61.4545 12.0065C60.5496 10.4023 56.1895 8.82092 51.7058 9.11042C49.3512 9.26136 45.1787 10.0683 43.6851 13.7755C43.3309 14.6543 42.9494 15.7205 42.5455 16.8493C40.4095 22.8162 37.1821 31.8336 30.226 34.9778C28.5499 35.7353 26.7382 36.1137 24.8029 36.1137Z" fill="#292835"></path><path fill-rule="evenodd" clip-rule="evenodd" d="M8.88588 55.436C9.4835 56.0267 10.2033 56.322 11.0454 56.322C11.8876 56.322 12.6075 56.0267 13.2051 55.436C13.8027 54.8455 14.1014 54.1341 14.1014 53.3018C14.1014 52.4693 13.8027 51.7579 13.2051 51.1674C12.6075 50.5767 11.8876 50.2814 11.0454 50.2814C10.2033 50.2814 9.4835 50.5767 8.88588 51.1674C8.65934 51.3912 8.47373 51.6373 8.32893 51.9057V54.6977C8.47373 54.9661 8.65934 55.2126 8.88588 55.436ZM8.32893 57.6643H6.6311V46.5901H8.32893V49.4358C9.11664 48.8809 10.022 48.6034 11.0454 48.6034C12.3583 48.6034 13.4787 49.0623 14.4071 49.9794C15.3352 50.8968 15.7994 52.0043 15.7994 53.3018C15.7994 54.5994 15.3352 55.707 14.4071 56.624C13.4787 57.5415 12.3583 58 11.0454 58C10.022 58 9.11664 57.7225 8.32893 57.1676V57.6643Z" fill="#292835"></path><path fill-rule="evenodd" clip-rule="evenodd" d="M24.6279 54.6977V51.9057C24.483 51.6373 24.2972 51.3912 24.0709 51.1674C23.4733 50.5765 22.7535 50.2814 21.9115 50.2814C21.0693 50.2814 20.3494 50.5765 19.7517 51.1674C19.1541 51.7579 18.8554 52.4693 18.8554 53.3017C18.8554 54.1341 19.1541 54.8454 19.7517 55.4359C20.3494 56.0267 21.0693 56.322 21.9115 56.322C22.7535 56.322 23.4733 56.0267 24.0709 55.4359C24.2972 55.2126 24.483 54.966 24.6279 54.6977ZM24.6279 57.1676C23.8402 57.7225 22.9347 58 21.9115 58C20.5984 58 19.4779 57.5414 18.5497 56.624C17.6215 55.707 17.1575 54.5994 17.1575 53.3017C17.1575 52.0043 17.6215 50.8968 18.5497 49.9793C19.4779 49.0623 20.5984 48.6034 21.9115 48.6034C22.9347 48.6034 23.8402 48.8809 24.6279 49.4357V48.939H26.3257V57.6643H24.6279V57.1676Z" fill="#292835"></path><path fill-rule="evenodd" clip-rule="evenodd" d="M28.6609 57.6644H30.3587V46.5901H28.6609V57.6644Z" fill="#292835"></path><path fill-rule="evenodd" clip-rule="evenodd" d="M38.2495 50.6572C37.8058 50.407 37.3124 50.2815 36.7691 50.2815C35.9268 50.2815 35.207 50.5767 34.6093 51.1675C34.0118 51.758 33.713 52.4694 33.713 53.3017C33.713 53.8066 33.825 54.2683 34.0494 54.6864C34.0635 54.7128 34.0782 54.739 34.0931 54.765L35.2885 55.9463C35.7321 56.197 36.2258 56.3221 36.7691 56.3221C37.7015 56.3221 38.5029 55.9373 39.1732 55.1677L40.5043 56.2011C39.5081 57.4005 38.2631 58.0001 36.7691 58.0001C35.456 58.0001 34.3355 57.5416 33.4074 56.6241C32.4791 55.7071 32.0151 54.5995 32.0151 53.3017C32.0151 52.0044 32.4791 50.8969 33.4074 49.9795C34.3355 49.0624 35.456 48.6035 36.7691 48.6035C37.0367 48.6035 37.2963 48.6225 37.5481 48.6604C38.5317 48.8086 39.312 49.2261 39.9939 50.0683" fill="#292835"></path><path fill-rule="evenodd" clip-rule="evenodd" d="M54.0037 51.6506V57.6643H52.3059V48.9255H54.0037V49.2748C54.7009 48.8273 55.4932 48.6034 56.3808 48.6034C57.6032 48.6034 58.6443 49.0287 59.5046 49.8788C60.3647 50.729 60.7951 51.7579 60.7951 52.9661V57.6643H59.0971V52.9661C59.0971 52.2233 58.8323 51.59 58.3025 51.0665C57.7728 50.543 57.1322 50.2813 56.3808 50.2813C55.6289 50.2813 54.9906 50.5411 54.4656 51.0601C54.2753 51.2479 54.1213 51.445 54.0037 51.6506Z" fill="#292835"></path><path fill-rule="evenodd" clip-rule="evenodd" d="M33.8106 56.969C33.3235 56.3747 33.1265 55.5824 33.2699 54.7952C33.4215 53.9636 33.9288 53.2579 34.6986 52.8084C35.1475 52.5462 35.7693 52.413 36.4892 52.2589C36.982 52.1533 37.7874 51.9807 38.263 51.7593C38.3518 51.7178 38.5161 51.5381 38.553 51.3385C38.5866 51.1564 38.4983 50.9541 38.4629 50.8937C38.3055 50.6254 37.9756 50.4523 37.2588 50.3173L37.5363 48.6581C39.7423 49.0732 40.3453 50.5359 40.4249 50.8557C40.621 51.5952 40.42 52.1419 40.2165 52.4706C39.5844 53.4921 38.1511 53.799 36.8863 54.0698C36.4205 54.1697 35.8408 54.2938 35.6526 54.4037C35.2769 54.6231 35.1531 54.9163 35.1152 55.1235C35.0699 55.3724 35.1284 55.6326 35.2677 55.8025L33.8106 56.969Z" fill="#292835"></path><path fill-rule="evenodd" clip-rule="evenodd" d="M35.2088 55.7172C35.2088 55.7172 35.3381 55.9918 35.9451 56.2159L35.4566 56.3068L34.7263 55.8322" fill="#292835"></path><path fill-rule="evenodd" clip-rule="evenodd" d="M48.1433 50.6572C47.6997 50.407 47.2062 50.2815 46.6629 50.2815C45.8206 50.2815 45.1008 50.5767 44.5032 51.1675C43.9056 51.758 43.6069 52.4694 43.6069 53.3017C43.6069 53.8066 43.7188 54.2683 43.9432 54.6864C43.9573 54.7128 43.972 54.739 43.9871 54.765L45.1823 55.9463C45.6259 56.197 46.1195 56.3221 46.6629 56.3221C47.5954 56.3221 48.3967 55.9373 49.067 55.1677L50.3981 56.2011C49.4019 57.4005 48.1569 58.0001 46.6629 58.0001C45.3499 58.0001 44.2293 57.5416 43.3012 56.6241C42.3729 55.7071 41.9089 54.5995 41.9089 53.3017C41.9089 52.0044 42.3729 50.8969 43.3012 49.9795C44.2293 49.0624 45.3499 48.6035 46.6629 48.6035C46.9305 48.6035 47.1902 48.6225 47.4419 48.6604C48.4255 48.8086 49.2058 49.2261 49.8877 50.0683" fill="#292835"></path><path fill-rule="evenodd" clip-rule="evenodd" d="M43.7041 56.969C43.2172 56.3747 43.0201 55.5824 43.1634 54.7952C43.315 53.9636 43.8223 53.2579 44.5921 52.8084C45.0411 52.5462 45.6629 52.413 46.3828 52.2589C46.8756 52.1533 47.6811 51.9807 48.1565 51.7593C48.2453 51.7178 48.4097 51.5381 48.4465 51.3385C48.4801 51.1564 48.392 50.9541 48.3566 50.8937C48.199 50.6254 47.8691 50.4523 47.1524 50.3173L47.4298 48.6581C49.6359 49.0732 50.239 50.5359 50.3186 50.8557C50.5145 51.5952 50.3136 52.1419 50.1101 52.4706C49.4779 53.4921 48.0446 53.799 46.7799 54.0698C46.3141 54.1697 45.7343 54.2938 45.5461 54.4037C45.1704 54.6231 45.0466 54.9163 45.0089 55.1235C44.9635 55.3724 45.0219 55.6326 45.1612 55.8025L43.7041 56.969Z" fill="#292835"></path><path fill-rule="evenodd" clip-rule="evenodd" d="M45.1027 55.7172C45.1027 55.7172 45.2321 55.9918 45.839 56.2159L45.3505 56.3068L44.6204 55.8322" fill="#292835"></path><path fill-rule="evenodd" clip-rule="evenodd" d="M58.6846 21.5653C58.657 21.5653 58.6292 21.5624 58.6009 21.5562C58.3935 21.5108 58.2625 21.3079 58.3084 21.1026C58.326 21.0241 60.0424 13.1846 57.6994 8.87541C57.599 8.69033 57.6691 8.45975 57.8563 8.36026C58.0433 8.26039 58.2768 8.33029 58.3776 8.51537C60.8562 13.0743 59.1346 20.9347 59.0602 21.2672C59.0202 21.4446 58.8611 21.5653 58.6846 21.5653Z" fill="#292835"></path><path fill-rule="evenodd" clip-rule="evenodd" d="M54.3265 21.2247C54.2989 21.2247 54.271 21.2218 54.2429 21.2156C54.0354 21.1703 53.9044 20.9673 53.9503 20.762C53.968 20.6835 55.6841 12.8442 53.3413 8.53497C53.2408 8.35002 53.3109 8.11931 53.4983 8.01994C53.685 7.91982 53.9187 7.98986 54.0194 8.17493C56.4979 12.7338 54.7764 20.5942 54.7019 20.9266C54.6622 21.104 54.5029 21.2247 54.3265 21.2247Z" fill="#292835"></path><path fill-rule="evenodd" clip-rule="evenodd" d="M49.6338 21.2287C49.6057 21.2287 49.5772 21.2258 49.5485 21.2192C49.3412 21.1731 49.2112 20.9693 49.258 20.7644C49.276 20.6859 51.0281 12.8544 48.705 8.53465C48.6053 8.34919 48.6765 8.11886 48.8643 8.02038C49.0521 7.92152 49.2849 7.99231 49.3846 8.17777C51.8424 12.7475 50.0849 20.6002 50.009 20.9323C49.9683 21.109 49.8097 21.2287 49.6338 21.2287Z" fill="#292835"></path></svg>
