<?xml version="1.0" encoding="UTF-8"?>
<svg fill="none" version="1.1" viewBox="0 0 64 42.713" xmlns="http://www.w3.org/2000/svg"><g clip-rule="evenodd" fill-rule="evenodd"><path d="m13.737 24.393s0.0736 2.5049 1.2421 4.2334c1.1686 1.7285 4.8909 5.3134 4.8909 5.3134s5.8033 1.687 8.4703 0.1807c2.6672-1.5062 6.1103-3.0095 8.58-7.3413 2.4695-4.332 4.7556-10.734 5.8988-14.122 1.1431-3.389 3.9128-4.7326 8.6242-5.1905 4.7115-0.45789 9.9546 1.7598 9.9546 1.7598s-2.7053-4.9347-6.2603-6.4004c-3.5551-1.4657-8.9888-3.8061-15.607 0-6.6181 3.8061-9.6397 8.6974-13.205 16.058-2.5699 5.3054-4.4627 5.4469-9.0349 5.8233-4.5722 0.3766-3.5538-0.3135-3.5538-0.3135z" fill="#fff"/><path d="m19.958 34.497s4.0467 3.8737 7.7387 5.5141c3.6919 1.6405 16.646 3.5233 23.505-1.372 6.8584-4.8953 10.923-11.604 11.748-18.229 0.8253-6.6243-0.1424-9.9072-3.0877-11.466-2.9454-1.5594-14.376-3.0655-17.424 4.089-3.0481 7.1547-4.5722 16.192-10.288 18.828-5.7153 2.636-7.8249 3.0487-10.961 2.2776-3.1365-0.7713-1.2314 0.3584-1.2314 0.3584z" fill="#f2e205"/><path d="m18.434 6.6318s-1.143-1.5063-4.5722-0.3766c-3.4292 1.1298-5.7153 2.636-6.4773 5.2719-0.762 2.6358-1.9654 5.171-0.60172 6.9158 1.3637 1.745 3.6498 4.3809 5.555 5.134v-7.1546l0.6452-4.8467 1.3417-1.9447 3.1523-1.9263z" fill="#0528f2"/><path d="m10.813 6.6318s-1.143-2.2594-5.7153-2.2594c-4.5722 0-3.0481 1.1297-3.0481 1.1297s4.9532 3.7656 4.5722 5.6484z" fill="#0528f2"/><g fill="#292835"><path d="m45.628 4.825c0 0.51945-0.4261 0.94055-0.9517 0.94055s-0.9517-0.4211-0.9517-0.94055 0.4261-0.94055 0.9517-0.94055 0.9517 0.4211 0.9517 0.94055z"/><path d="m63.237 17.351c-0.4208 0-0.7621-0.3372-0.7621-0.7531 0-8.3216-6.8501-15.092-15.27-15.092-3.2651 0-6.3791 1.0036-9.0061 2.9024-0.3393 0.2455-0.8166 0.17231-1.0649-0.16321-0.2485-0.33577-0.1745-0.80705 0.1653-1.0526 2.8896-2.0888 6.3151-3.193 9.9057-3.193 9.2606 0 16.795 7.4458 16.795 16.598 0 0.4159-0.3412 0.7531-0.762 0.7531z"/><path d="m37.576 42.713c-14.57 0-26.424-11.715-26.424-26.115 0-0.8888 0.046-1.7869 0.1364-2.669 0.0425-0.4138 0.4169-0.7149 0.8349-0.6734 0.4188 0.042 0.7238 0.4114 0.6814 0.8253-0.0852 0.832-0.1285 1.6788-0.1285 2.5171 0 13.569 11.17 24.608 24.9 24.608 13.73 0 24.9-11.039 24.9-24.608 0-0.4159 0.3411-0.7532 0.762-0.7532 0.4208 0 0.762 0.3373 0.762 0.7532 0 14.4-11.854 26.115-26.424 26.115z"/><path d="m16.575 25.368c-0.4473 0-0.8016-0.0081-0.8238-0.0086-5.6899 1e-4 -10.334-4.5894-10.334-10.231 0-5.6411 4.644-10.231 10.352-10.231 3.7521 0 5.8652 1.79 5.9533 1.8661 0.2525 0.21832 0.3308 0.57419 0.1929 0.87646-0.1378 0.30264-0.4583 0.48064-0.7924 0.43715-0.3188-0.04071-0.6449-0.06131-0.9694-0.06131-4.5305 0-7.4579 2.9768-7.4579 7.5837 0 0.416-0.3412 0.7531-0.7621 0.7531-0.4208 0-0.762-0.3371-0.762-0.7531 0-4.7189 2.7189-8.0938 6.9494-8.9028-0.6667-0.17256-1.4539-0.29291-2.3518-0.29291-4.8677 0-8.8279 3.9137-8.8279 8.7244 0 4.8108 3.9602 8.7246 8.8279 8.7246 0.0259 5e-4 0.8135 0.0183 1.5 1e-4 0.6878-0.0182 1.4433-0.0773 1.451-0.0778 0.1601-0.0092 3.4366-0.2376 6.3618-4.3657 0.5596-0.7897 1.1827-1.9329 1.9044-3.2569 3.2933-6.0414 8.8052-16.153 21.379-16.153 0.4209 0 0.762 0.33728 0.762 0.7532s-0.3411 0.75307-0.762 0.75307c-11.664 0-16.703 9.2442-20.037 15.361-0.7442 1.3654-1.387 2.5445-1.9978 3.4066-3.3817 4.7724-7.3493 4.9974-7.5166 5.0045-0.0054 1e-3 -0.7761 0.0611-1.5034 0.0807-0.2478 0.0063-0.504 0.0086-0.7354 0.0086z"/><path d="m6.481 13.393c-0.42085 0-0.762-0.3371-0.762-0.7532 0-3.216-2.2732-5.9531-4.9639-5.9768-0.30623-0.00278-0.58099-0.18647-0.69765-0.46636-0.11666-0.27989-0.052446-0.60162 0.16296-0.81679 1.4527-1.4499 3.3894-2.2485 5.454-2.2485 1.814 0 3.5742 0.63715 4.9567 1.794 0.01 0.00847 0.0201 0.01732 0.0298 0.02629 0.085 0.07914 0.8431 0.78961 1.2514 1.3595 0.2432 0.33956 0.162 0.80958-0.1815 1.0499-0.3439 0.24033-0.8195 0.15942-1.0623-0.17951-0.266-0.37142-0.82507-0.92058-1.0375-1.1193-1.1051-0.91881-2.5096-1.4246-3.9566-1.4246-1.1147 0-2.1829 0.29051-3.1174 0.8355 2.6726 0.93866 4.6862 3.8494 4.6862 7.1666 0 0.4161-0.34128 0.7532-0.76212 0.7532z"/><path d="m24.803 35.257c-2.1734 0-4.5025-0.4774-6.9704-1.4316-0.392-0.1516-0.5854-0.5885-0.432-0.9757 0.1531-0.3871 0.5947-0.5787 0.9873-0.4268 4.2667 1.6499 8.0367 1.7599 11.204 0.3283 6.3684-2.8785 9.4663-11.534 11.516-17.261 0.4094-1.1429 0.7955-2.2226 1.1606-3.1285 1.337-3.3179 4.6533-5.3106 9.3383-5.6111 4.8505-0.31086 9.8629 1.3338 11.179 3.666 0.205 0.3633 0.0729 0.8219-0.2947 1.0245-0.3681 0.2028-0.8316 0.0723-1.0367-0.2913-0.9049-1.6042-5.265-3.1856-9.7487-2.8961-2.3546 0.15094-6.5271 0.95788-8.0207 4.6651-0.3542 0.8788-0.7357 1.945-1.1396 3.0738-2.136 5.9669-5.3634 14.984-12.32 18.128-1.6761 0.7575-3.4878 1.1359-5.4231 1.1359z"/><path d="m58.685 20.708c-0.0276 0-0.0554-0.0029-0.0837-0.0091-0.2074-0.0454-0.3384-0.2483-0.2925-0.4536 0.0176-0.0785 1.734-7.918-0.609-12.227-0.1004-0.18508-0.0303-0.41566 0.1569-0.51515 0.187-0.09987 0.4205-0.02997 0.5213 0.15511 2.4786 4.5589 0.757 12.419 0.6826 12.752-0.04 0.1774-0.1991 0.2981-0.3756 0.2981z"/><path d="m54.326 20.368c-0.0276 0-0.0555-0.0029-0.0836-0.0091-0.2075-0.0453-0.3385-0.2483-0.2926-0.4536 0.0177-0.0785 1.7338-7.9178-0.609-12.227-0.1005-0.18495-0.0304-0.41566 0.157-0.51503 0.1867-0.10012 0.4204-0.03008 0.5211 0.15499 2.4785 4.5589 0.757 12.419 0.6825 12.752-0.0397 0.1774-0.199 0.2981-0.3754 0.2981z"/><path d="m49.634 20.372c-0.0281 0-0.0566-0.0029-0.0853-0.0095-0.2073-0.0461-0.3373-0.2499-0.2905-0.4548 0.018-0.0785 1.7701-7.91-0.553-12.23-0.0997-0.18546-0.0285-0.41579 0.1593-0.51427 0.1878-0.09886 0.4206-0.02807 0.5203 0.15739 2.4578 4.5697 0.7003 12.422 0.6244 12.755-0.0407 0.1767-0.1993 0.2964-0.3752 0.2964z"/></g></g></svg>
